<svg width="71" height="51" viewBox="0 0 71 51" fill="none" xmlns="http://www.w3.org/2000/svg">
<path d="M9.81917 0C4.39619 0 0 4.36523 0 9.75V41.25C0 46.6348 4.39619 51 9.81917 51H41.5495C46.9724 51 51.3686 46.6348 51.3686 41.25V36.5122L65.0887 45.8471C67.5949 47.5523 71 45.7704 71 42.7537V8.24526C71 5.22893 67.5958 3.44693 65.0895 5.15125L51.3686 14.4815V9.75C51.3686 4.36523 46.9724 0 41.5495 0H9.81917ZM51.3686 31.0571V19.9356L66.4681 9.66789V41.3306L51.3686 31.0571ZM46.8367 9.75V41.25C46.8367 44.1495 44.4695 46.5 41.5495 46.5H9.81917C6.89911 46.5 4.53193 44.1495 4.53193 41.25V9.75C4.53193 6.85051 6.89911 4.5 9.81917 4.5H41.5495C44.4695 4.5 46.8367 6.8505 46.8367 9.75Z" fill="white"/>
<path d="M15.1064 4.5H19.6383V46.5H15.1064V4.5Z" fill="white"/>
<path d="M15.1064 28.5V33H4.53193L4.53193 28.5H15.1064Z" fill="white"/>
<path d="M46.8299 28.5V33H19.6383V28.5H46.8299Z" fill="white"/>
</svg>
